<svg id="0682bff3-c7a0-4323-8a27-a04d0d46d218" data-name="Layer 1" xmlns="http://www.w3.org/2000/svg" width="750" height="350" viewBox="0 0 750 350"><title>Virta Logo - Horizontal Blue</title><path d="M412.24,126.52c8.24,0,14.56-5.94,14.56-14.18s-6.32-14.18-14.56-14.18-14.56,5.94-14.56,14.18S404,126.52,412.24,126.52Zm11.31,111.72V142.43H400.93v95.81Zm-69.95,0c15.91-24.53,28.75-56.14,35.26-95.81H365.67c-4.4,29.13-10.73,50.21-21.27,68.79-10.34-18.58-16.67-39.66-21.07-68.79H299.56c6.52,39.67,19.55,71.28,35.26,95.81Zm206-1.34v-19a51,51,0,0,1-13,1.92c-9.39,0-12.84-3.84-12.84-16.29v-42h27.4l7.48-19.16H533.73V113.68l-22.61,6.71v88.53c0,20.89,13.41,31.24,31.62,31.24A44,44,0,0,0,559.6,236.9Zm-96-46.56c0-19.55,9-29.71,26.63-29.71a42,42,0,0,1,12.46,1.92V143.2A41.41,41.41,0,0,0,490,141.09c-11.69,0-20.5,5.17-26.44,14.18V142.43H441v95.81H463.6Zm139.12,32.57c-9.78,0-15.14-5.75-15.14-13,0-7.86,6.13-13.6,20.5-13.6a87,87,0,0,1,14.57,1.34v7.09C622.65,216,613.26,222.91,602.72,222.91Zm54,14.76V221c-9.59,1.15-13-2.11-13-10.35V172.9c0-23.38-14.76-32.39-41.59-32.39A122.05,122.05,0,0,0,577.81,143L570,163.12a139.94,139.94,0,0,1,29.7-3.83c15,0,23,4.6,23,15.33v6.71A96.33,96.33,0,0,0,605,179.6c-26.45,0-39.29,13.8-39.29,30.47,0,16.29,12.65,30.09,33.15,30.09,12.08,0,21.28-5,26.83-12.65C631.46,237.28,643.92,241.69,656.76,237.67Z" fill="#23afff"/><path d="M268.57,177.05c-11.61-2.24-17.45-7.61-18.78-14.29s2-13.88,11.88-20.39c-11.58,2.37-19-.35-22.82-6S235.4,122.75,242,113c-9.79,6.63-17.71,7-23.38,3.17s-8.4-11.23-6-22.81c-6.51,9.86-13.71,13.2-20.39,11.87S180.17,98,177.93,86.42c-2.24,11.6-7.6,17.44-14.29,18.77s-13.88-2-20.39-11.87c2.37,11.58-.35,19-6,22.81s-13.6,3.46-23.39-3.17c6.63,9.79,7,17.72,3.17,23.39s-11.23,8.39-22.81,6c9.86,6.51,13.2,13.7,11.87,20.39S98.9,174.81,87.3,177.05c11.6,2.24,17.45,7.61,18.77,14.29s-2,13.89-11.87,20.4c11.58-2.38,19,.35,22.81,6s3.46,13.59-3.17,23.38c9.79-6.63,17.72-7,23.39-3.17s8.39,11.24,6,22.82c6.51-9.87,13.7-13.21,20.39-11.88s12.05,7.17,14.29,18.78c2.24-11.61,7.61-17.45,14.3-18.78s13.88,2,20.39,11.88c-2.38-11.58.35-19,6-22.82s13.59-3.46,23.38,3.17c-6.62-9.79-7-17.72-3.17-23.38s11.24-8.4,22.82-6c-9.87-6.51-13.21-13.71-11.88-20.4S257,179.29,268.57,177.05Zm-78.75,59.67a60.84,60.84,0,1,1,47.8-71.54A60.84,60.84,0,0,1,189.82,236.72Z" fill="#23afff"/></svg>